<?xml version="1.0" encoding="UTF-8"?>
<svg version="1.1" xmlns="http://www.w3.org/2000/svg" width="150" height="141">
<path d="M0 0 C2.4375 0.1875 2.4375 0.1875 3.4375 1.1875 C3.59767882 5.35214926 3.41998196 9.13476192 2.4375 13.1875 C3.6440625 13.001875 3.6440625 13.001875 4.875 12.8125 C10.08879985 13.36132104 13.62594063 15.63803214 17.4375 19.1875 C18.96795009 21.77292055 19.77608268 24.27017716 20.4375 27.1875 C20.60728867 27.80977478 20.77707733 28.43204956 20.95201111 29.07318115 C21.73663075 32.49022349 21.67782065 35.96212782 21.75390625 39.453125 C21.77468735 40.24652283 21.79546844 41.03992065 21.81687927 41.85736084 C21.88209973 44.38398844 21.94113144 46.91071721 22 49.4375 C22.0432114 51.15365616 22.08682653 52.86980222 22.13085938 54.5859375 C22.23775283 58.78635546 22.33909729 62.98687489 22.4375 67.1875 C23.0975 66.5275 23.7575 65.8675 24.4375 65.1875 C27.375 64.8125 27.375 64.8125 30.4375 65.1875 C33.24382638 67.69314856 33.81976704 70.44412124 34.69921875 74.0078125 C35.6725812 76.88154927 37.11488494 79.39780342 38.5625 82.0625 C41.62407065 88.05838775 42.79254827 92.63453781 40.8515625 99.15625 C39.53454553 102.49835758 37.8722035 105.54108315 35.4375 108.1875 C34.7775 108.1875 34.1175 108.1875 33.4375 108.1875 C33.1075 113.4675 32.7775 118.7475 32.4375 124.1875 C31.1175 124.1875 29.7975 124.1875 28.4375 124.1875 C28.4375 120.2275 28.4375 116.2675 28.4375 112.1875 C27.4475 112.6825 27.4475 112.6825 26.4375 113.1875 C26.4375 116.8175 26.4375 120.4475 26.4375 124.1875 C2.6775 124.1875 -21.0825 124.1875 -45.5625 124.1875 C-46.0575 119.7325 -46.0575 119.7325 -46.5625 115.1875 C-48.8725 114.5275 -51.1825 113.8675 -53.5625 113.1875 C-53.80678343 118.9849423 -53.80678343 118.9849423 -51.5625 124.1875 C-53.5425 124.1875 -55.5225 124.1875 -57.5625 124.1875 C-57.5625 120.2275 -57.5625 116.2675 -57.5625 112.1875 C-58.8825 111.8575 -60.2025 111.5275 -61.5625 111.1875 C-62.2225 115.4775 -62.8825 119.7675 -63.5625 124.1875 C-65.5425 124.1875 -67.5225 124.1875 -69.5625 124.1875 C-69.0675 122.7025 -69.0675 122.7025 -68.5625 121.1875 C-67.9025 121.1875 -67.2425 121.1875 -66.5625 121.1875 C-66.5625 117.5575 -66.5625 113.9275 -66.5625 110.1875 C-67.4803125 109.76339844 -68.398125 109.33929688 -69.34375 108.90234375 C-86.19604982 100.92040035 -86.19604982 100.92040035 -89.5625 94.1875 C-90.5966684 86.01587428 -88.13923716 80.62314954 -83.3125 74.1875 C-82.44625 73.1975 -82.44625 73.1975 -81.5625 72.1875 C-82.490625 72.22875 -83.41875 72.27 -84.375 72.3125 C-87.5625 72.1875 -87.5625 72.1875 -90.5625 70.1875 C-90.2325 68.2075 -89.9025 66.2275 -89.5625 64.1875 C-84.9425 62.8675 -80.3225 61.5475 -75.5625 60.1875 C-74.40731818 54.97942799 -74.40731818 54.97942799 -76.75 50.9375 C-77.44222656 49.76767578 -77.44222656 49.76767578 -78.1484375 48.57421875 C-78.61507812 47.78660156 -79.08171875 46.99898437 -79.5625 46.1875 C-83.02455138 39.89185879 -84.71357662 34.40788968 -83.5625 27.1875 C-81.8486091 21.86252346 -79.34738481 18.22181719 -74.5625 15.1875 C-64.748094 10.78431858 -55.02859786 12.4563967 -44.75 14.1875 C-32.10383916 16.15091241 -20.27861212 16.39232216 -7.5625 15.1875 C-7.42972656 14.56359375 -7.29695313 13.9396875 -7.16015625 13.296875 C-6.46331289 10.83742786 -5.46554637 9.84232293 -3.5625 8.1875 C-4.0575 7.6925 -4.0575 7.6925 -4.5625 7.1875 C-4.75 4.75 -4.75 4.75 -4.5625 2.1875 C-2.5625 0.1875 -2.5625 0.1875 0 0 Z M21.4375 117.1875 C21.4375 118.8375 21.4375 120.4875 21.4375 122.1875 C22.0975 121.5275 22.7575 120.8675 23.4375 120.1875 C22.7775 119.1975 22.1175 118.2075 21.4375 117.1875 Z " fill="#C2BAFA" transform="translate(99.5625,9.8125)"/>
<path d="M0 0 C1.65322266 0.01740234 1.65322266 0.01740234 3.33984375 0.03515625 C4.99693359 0.04869141 4.99693359 0.04869141 6.6875 0.0625 C7.54214844 0.07410156 8.39679688 0.08570313 9.27734375 0.09765625 C9.27734375 1.41765625 9.27734375 2.73765625 9.27734375 4.09765625 C20.16734375 4.09765625 31.05734375 4.09765625 42.27734375 4.09765625 C42.27734375 2.77765625 42.27734375 1.45765625 42.27734375 0.09765625 C42.93734375 0.09765625 43.59734375 0.09765625 44.27734375 0.09765625 C44.40234375 6.72265625 44.40234375 6.72265625 43.27734375 10.09765625 C45.75234375 10.59265625 45.75234375 10.59265625 48.27734375 11.09765625 C48.27734375 10.43765625 48.27734375 9.77765625 48.27734375 9.09765625 C47.61734375 9.09765625 46.95734375 9.09765625 46.27734375 9.09765625 C46.60734375 6.12765625 46.93734375 3.15765625 47.27734375 0.09765625 C49.27734375 2.09765625 49.27734375 2.09765625 49.47265625 4.04296875 C49.40755208 6.06119792 49.34244792 8.07942708 49.27734375 10.09765625 C50.59734375 9.76765625 51.91734375 9.43765625 53.27734375 9.09765625 C52.78234375 8.60265625 52.78234375 8.60265625 52.27734375 8.09765625 C52.13619214 5.42706774 52.23487268 2.77333387 52.27734375 0.09765625 C53.26734375 0.75765625 54.25734375 1.41765625 55.27734375 2.09765625 C55.54388321 5.07716615 55.62502159 7.84651445 55.5703125 10.82421875 C55.56606766 11.68703461 55.56182281 12.54985046 55.55744934 13.43881226 C55.54062767 16.20040822 55.50296973 18.96128008 55.46484375 21.72265625 C55.44980139 23.59243739 55.43611221 25.46222995 55.42382812 27.33203125 C55.39071281 31.92085283 55.33890714 36.50913169 55.27734375 41.09765625 C54.28734375 41.59265625 54.28734375 41.59265625 53.27734375 42.09765625 C53.93734375 43.08765625 54.59734375 44.07765625 55.27734375 45.09765625 C55.47315128 47.8317574 55.55742323 50.46149295 55.54296875 53.1953125 C55.54583893 54.38041664 55.54583893 54.38041664 55.54876709 55.58946228 C55.55012708 57.25796833 55.54644363 58.92648503 55.53808594 60.5949707 C55.52736933 63.15404905 55.53799457 65.71242767 55.55078125 68.27148438 C55.5494599 69.89192864 55.54689802 71.51237246 55.54296875 73.1328125 C55.54701721 73.90053482 55.55106567 74.66825714 55.55523682 75.45924377 C55.50727482 80.86772518 55.50727482 80.86772518 53.27734375 83.09765625 C50.91758728 83.34489441 50.91758728 83.34489441 47.92553711 83.34057617 C46.80775375 83.3436528 45.6899704 83.34672943 44.53831482 83.34989929 C43.3268428 83.34271378 42.11537079 83.33552826 40.8671875 83.328125 C39.62941055 83.32766678 38.39163361 83.32720856 37.11634827 83.32673645 C33.82376328 83.32293485 30.53137016 83.30991449 27.23883057 83.29327393 C23.88382728 83.27981789 20.52885745 83.28299809 17.17382812 83.28320312 C14.63411258 83.27828793 12.0943986 83.2724596 9.5546875 83.265625 C8.34119125 83.26451218 7.12769501 83.26339935 5.87742615 83.26225281 C4.76279495 83.25587296 3.64816376 83.2494931 2.49975586 83.24291992 C1.5131749 83.23910812 0.52659393 83.23529633 -0.48988342 83.23136902 C-2.72265625 83.09765625 -2.72265625 83.09765625 -3.72265625 82.09765625 C-3.83218387 80.26754296 -3.87175098 78.43320183 -3.88378906 76.59985352 C-3.89339661 75.42516006 -3.90300415 74.25046661 -3.91290283 73.04017639 C-3.91715271 71.76105881 -3.92140259 70.48194122 -3.92578125 69.1640625 C-3.93148132 67.86065414 -3.9371814 66.55724579 -3.9430542 65.21434021 C-3.95357174 62.45107634 -3.95940956 59.68784163 -3.96289062 56.92456055 C-3.96837928 53.37888619 -3.99241144 49.83359513 -4.02086258 46.28804111 C-4.04393353 42.91338827 -4.04593488 39.53879021 -4.05078125 36.1640625 C-4.06312805 34.88696915 -4.07547485 33.60987579 -4.0881958 32.29408264 C-4.0851947 31.11623703 -4.0821936 29.93839142 -4.07910156 28.72485352 C-4.08274719 27.68418228 -4.08639282 26.64351105 -4.09014893 25.57130432 C-3.96887634 24.75500046 -3.84760376 23.93869659 -3.72265625 23.09765625 C-0.19586526 20.74646226 1.3061386 20.88322173 5.46484375 20.97265625 C6.55152344 20.99070312 7.63820313 21.00875 8.7578125 21.02734375 C10.00498047 21.06214844 10.00498047 21.06214844 11.27734375 21.09765625 C11.27734375 17.79765625 11.27734375 14.49765625 11.27734375 11.09765625 C10.28734375 11.59265625 10.28734375 11.59265625 9.27734375 12.09765625 C6.94435715 12.13788016 4.61027709 12.14085872 2.27734375 12.09765625 C2.27734375 14.07765625 2.27734375 16.05765625 2.27734375 18.09765625 C0.29734375 18.09765625 -1.68265625 18.09765625 -3.72265625 18.09765625 C-3.74949937 15.28509344 -3.76941813 12.47278384 -3.78515625 9.66015625 C-3.79353516 8.85771484 -3.80191406 8.05527344 -3.81054688 7.22851562 C-3.81917055 5.18470404 -3.77493775 3.14081723 -3.72265625 1.09765625 C-2.72265625 0.09765625 -2.72265625 0.09765625 0 0 Z " fill="#F4F3FC" transform="translate(61.72265625,45.90234375)"/>
<path d="M0 0 C0.73968018 0.0925708 1.47936035 0.1851416 2.24145508 0.28051758 C5.70998972 0.72099587 9.15316726 1.22382775 12.6015625 1.8046875 C23.81056432 3.61900487 34.64722419 2.94910475 45.9375 2.1875 C45.6075 5.8175 45.2775 9.4475 44.9375 13.1875 C42.6275 13.5175 40.3175 13.8475 37.9375 14.1875 C37.6075 15.5075 37.2775 16.8275 36.9375 18.1875 C27.3675 18.1875 17.7975 18.1875 7.9375 18.1875 C8.081875 21.961875 8.22625 25.73625 8.375 29.625 C8.41810303 30.81665771 8.46120605 32.00831543 8.50561523 33.23608398 C8.5627771 34.63322632 8.5627771 34.63322632 8.62109375 36.05859375 C8.67608032 37.49609985 8.67608032 37.49609985 8.73217773 38.96264648 C8.69584424 41.15888925 8.69584424 41.15888925 9.9375 42.1875 C9.97830783 44.18708364 9.98004356 46.18795254 9.9375 48.1875 C9.4027002 48.33372803 8.86790039 48.47995605 8.31689453 48.63061523 C5.89816661 49.29325521 3.48032904 49.95908806 1.0625 50.625 C0.22074219 50.85509766 -0.62101562 51.08519531 -1.48828125 51.32226562 C-2.29394531 51.54462891 -3.09960938 51.76699219 -3.9296875 51.99609375 C-4.67331543 52.20032959 -5.41694336 52.40456543 -6.18310547 52.61499023 C-8.1261295 53.14966267 -8.1261295 53.14966267 -10.0625 54.1875 C-10.14476668 57.23136724 -10.03858217 59.25925348 -9.0625 62.1875 C-15.71795792 62.73080269 -19.52084744 61.96054004 -25.0625 58.1875 C-20.87689895 62.89630118 -18.18442707 64.12653646 -12.0625 67.1875 C-12.0625 77.0875 -12.0625 86.9875 -12.0625 97.1875 C-30.99468884 89.29908798 -30.99468884 89.29908798 -36.0625 81.1875 C-37.39782006 74.78758764 -35.50403177 69.5358264 -32.0625 64.1875 C-30.78187515 62.4800002 -29.46799561 60.79378069 -28.0625 59.1875 C-28.990625 59.22875 -29.91875 59.27 -30.875 59.3125 C-34.0625 59.1875 -34.0625 59.1875 -37.0625 57.1875 C-36.5675 54.2175 -36.5675 54.2175 -36.0625 51.1875 C-31.4425 49.8675 -26.8225 48.5475 -22.0625 47.1875 C-20.90731818 41.97942799 -20.90731818 41.97942799 -23.25 37.9375 C-23.94222656 36.76767578 -23.94222656 36.76767578 -24.6484375 35.57421875 C-25.11507813 34.78660156 -25.58171875 33.99898437 -26.0625 33.1875 C-29.52455138 26.89185879 -31.21357662 21.40788968 -30.0625 14.1875 C-28.02381411 7.85340107 -24.70247524 4.05667647 -18.75 1 C-12.38574972 -0.92407567 -6.52862612 -0.91141675 0 0 Z " fill="#F5F5FE" transform="translate(46.0625,22.8125)"/>
<path d="M0 0 C5.4504126 -0.83852502 8.70452064 1.09358439 13.01171875 4.1484375 C16.0766512 7.00261821 17.09167984 9.99365929 18 14 C18.16978867 14.62227478 18.33957733 15.24454956 18.51451111 15.88568115 C19.29913075 19.30272349 19.24032065 22.77462782 19.31640625 26.265625 C19.33718735 27.05902283 19.35796844 27.85242065 19.37937927 28.66986084 C19.44459973 31.19648844 19.50363144 33.72321721 19.5625 36.25 C19.6057114 37.96615616 19.64932653 39.68230222 19.69335938 41.3984375 C19.80025283 45.59885546 19.90159729 49.79937489 20 54 C20.66 53.34 21.32 52.68 22 52 C24.9375 51.625 24.9375 51.625 28 52 C30.80632638 54.50564856 31.38226704 57.25662124 32.26171875 60.8203125 C33.2350812 63.69404927 34.67738494 66.21030342 36.125 68.875 C39.18657065 74.87088775 40.35504827 79.44703781 38.4140625 85.96875 C37.09704553 89.31085758 35.4347035 92.35358315 33 95 C32.34 95 31.68 95 31 95 C30.67 100.28 30.34 105.56 30 111 C28.68 111 27.36 111 26 111 C26 107.04 26 103.08 26 99 C25.01 99.495 25.01 99.495 24 100 C24 103.63 24 107.26 24 111 C22.02 111 20.04 111 18 111 C18.35964844 110.45859375 18.71929687 109.9171875 19.08984375 109.359375 C20.33191873 106.13957548 19.54814574 104.53821235 18.5625 101.25 C15.99083818 90.62497617 17.23919573 79.81114858 18 69 C17.38125 68.896875 16.7625 68.79375 16.125 68.6875 C14 68 14 68 12 65 C12.33 64.01 12.66 63.02 13 62 C13 62.66 13 63.32 13 64 C13.66 64 14.32 64 15 64 C14.9312809 58.48196977 14.84339326 52.96470885 14.73754883 47.44726562 C14.70424798 45.56942253 14.67623224 43.6914781 14.65356445 41.81347656 C14.62011258 39.11739825 14.56780359 36.422253 14.51171875 33.7265625 C14.50532883 32.88380768 14.4989389 32.04105286 14.49235535 31.17276001 C14.46069155 28.56061313 14.46069155 28.56061313 14 25 C13.01 24.34 12.02 23.68 11 23 C9.92863949 20.69855891 8.92010283 18.3659787 8 16 C8.99 15.67 9.98 15.34 11 15 C11.33 12.69 11.66 10.38 12 8 C8.37 8.33 4.74 8.66 1 9 C0 4 0 4 0 0 Z " fill="#BEB6F9" transform="translate(102,23)"/>
<path d="M0 0 C2.4375 0.1875 2.4375 0.1875 3.4375 1.1875 C3.57318319 4.85094611 3.60211426 7.69365721 2.4375 11.1875 C2.49452974 13.44769329 2.49452974 13.44769329 2.8125 15.8125 C2.90273437 16.60914062 2.99296875 17.40578125 3.0859375 18.2265625 C3.24431084 20.18471983 3.24431084 20.18471983 4.4375 21.1875 C6.12358966 21.25955511 7.81250659 21.27136068 9.5 21.25 C10.41910156 21.24097656 11.33820313 21.23195313 12.28515625 21.22265625 C12.99542969 21.21105469 13.70570312 21.19945313 14.4375 21.1875 C13.6875 27.9375 13.6875 27.9375 11.4375 30.1875 C11.911875 31.0125 12.38625 31.8375 12.875 32.6875 C14.67513402 36.7198002 15.00050987 39.81759873 15.4375 44.1875 C15.7675 44.8475 16.0975 45.5075 16.4375 46.1875 C14.7875 46.1875 13.1375 46.1875 11.4375 46.1875 C10.9425 42.2275 10.9425 42.2275 10.4375 38.1875 C9.7775 40.4975 9.1175 42.8075 8.4375 45.1875 C9.0975 45.1875 9.7575 45.1875 10.4375 45.1875 C10.4375 45.8475 10.4375 46.5075 10.4375 47.1875 C8.7875 46.8575 7.1375 46.5275 5.4375 46.1875 C5.9325 41.2375 5.9325 41.2375 6.4375 36.1875 C5.7775 36.1875 5.1175 36.1875 4.4375 36.1875 C4.4375 37.5075 4.4375 38.8275 4.4375 40.1875 C-6.4525 40.1875 -17.3425 40.1875 -28.5625 40.1875 C-28.5625 38.8675 -28.5625 37.5475 -28.5625 36.1875 C-34.5025 36.6825 -34.5025 36.6825 -40.5625 37.1875 C-40.8925 42.7975 -41.2225 48.4075 -41.5625 54.1875 C-39.5825 54.1875 -37.6025 54.1875 -35.5625 54.1875 C-35.5625 52.2075 -35.5625 50.2275 -35.5625 48.1875 C-31.1075 47.6925 -31.1075 47.6925 -26.5625 47.1875 C-26.5625 48.8375 -26.5625 50.4875 -26.5625 52.1875 C-14.3525 52.1875 -2.1425 52.1875 10.4375 52.1875 C10.4375 52.5175 10.4375 52.8475 10.4375 53.1875 C-1.7725 53.1875 -13.9825 53.1875 -26.5625 53.1875 C-26.5625 54.5075 -26.5625 55.8275 -26.5625 57.1875 C-27.77486328 57.24357422 -27.77486328 57.24357422 -29.01171875 57.30078125 C-30.08035156 57.36652344 -31.14898437 57.43226562 -32.25 57.5 C-33.30574219 57.55800781 -34.36148438 57.61601563 -35.44921875 57.67578125 C-38.79259964 58.22532064 -40.79776262 59.27424018 -43.5625 61.1875 C-45.84700455 54.84665077 -45.79458237 48.93696213 -45.6875 42.25 C-45.64625 38.599375 -45.605 34.94875 -45.5625 31.1875 C-35.9925 31.1875 -26.4225 31.1875 -16.5625 31.1875 C-16.2325 29.5375 -15.9025 27.8875 -15.5625 26.1875 C-13.2525 26.1875 -10.9425 26.1875 -8.5625 26.1875 C-8.58570313 25.52363281 -8.60890625 24.85976563 -8.6328125 24.17578125 C-8.84620663 13.73471124 -8.84620663 13.73471124 -4.9375 9.375 C-4.48375 8.983125 -4.03 8.59125 -3.5625 8.1875 C-4.0575 7.6925 -4.0575 7.6925 -4.5625 7.1875 C-4.75 4.75 -4.75 4.75 -4.5625 2.1875 C-2.5625 0.1875 -2.5625 0.1875 0 0 Z " fill="#C9C2FB" transform="translate(99.5625,9.8125)"/>
<path d="M0 0 C1 1 1 1 1.0625 4.0625 C1.041875 5.031875 1.02125 6.00125 1 7 C0.4652002 7.14622803 -0.06959961 7.29245605 -0.62060547 7.44311523 C-3.03933339 8.10575521 -5.45717096 8.77158806 -7.875 9.4375 C-8.71675781 9.66759766 -9.55851562 9.89769531 -10.42578125 10.13476562 C-11.23144531 10.35712891 -12.03710938 10.57949219 -12.8671875 10.80859375 C-13.61081543 11.01282959 -14.35444336 11.21706543 -15.12060547 11.42749023 C-17.0636295 11.96216267 -17.0636295 11.96216267 -19 13 C-19.08226668 16.04386724 -18.97608217 18.07175348 -18 21 C-24.65545792 21.54330269 -28.45834744 20.77304004 -34 17 C-29.81439895 21.70880118 -27.12192707 22.93903646 -21 26 C-21 35.9 -21 45.8 -21 56 C-39.93218884 48.11158798 -39.93218884 48.11158798 -45 40 C-46.33532006 33.60008764 -44.44153177 28.3483264 -41 23 C-39.71937515 21.2925002 -38.40549561 19.60628069 -37 18 C-38.3921875 18.061875 -38.3921875 18.061875 -39.8125 18.125 C-43 18 -43 18 -46 16 C-45.67 14.02 -45.34 12.04 -45 10 C-35.90382602 7.18845532 -26.70555939 4.91447402 -17.4375 2.75 C-16.29555176 2.47978027 -15.15360352 2.20956055 -13.97705078 1.93115234 C-12.34678955 1.55531006 -12.34678955 1.55531006 -10.68359375 1.171875 C-9.70962646 0.9459668 -8.73565918 0.72005859 -7.73217773 0.48730469 C-5.07355768 0.01311957 -2.69326712 -0.16562952 0 0 Z " fill="#F5F5FE" transform="translate(55,64)"/>
<path d="M0 0 C0.66 0 1.32 0 2 0 C2 2.64 2 5.28 2 8 C5.3 8 8.6 8 12 8 C14.97621301 19.37963799 13.41679329 30.4632546 12 42 C10.68 42 9.36 42 8 42 C8 38.04 8 34.08 8 30 C7.34 30.33 6.68 30.66 6 31 C6 34.63 6 38.26 6 42 C4.02 42 2.04 42 0 42 C0.35964844 41.45859375 0.71929687 40.9171875 1.08984375 40.359375 C2.33191873 37.13957548 1.54814574 35.53821235 0.5625 32.25 C-2.00916182 21.62497617 -0.76080427 10.81114858 0 0 Z " fill="#EFCAC5" transform="translate(120,92)"/>
<path d="M0 0 C1 1 1 1 1.0625 4.0625 C1.041875 5.031875 1.02125 6.00125 1 7 C0.4652002 7.14622803 -0.06959961 7.29245605 -0.62060547 7.44311523 C-3.03933339 8.10575521 -5.45717096 8.77158806 -7.875 9.4375 C-8.71675781 9.66759766 -9.55851562 9.89769531 -10.42578125 10.13476562 C-11.23144531 10.35712891 -12.03710938 10.57949219 -12.8671875 10.80859375 C-13.61081543 11.01282959 -14.35444336 11.21706543 -15.12060547 11.42749023 C-17.0636295 11.96216267 -17.0636295 11.96216267 -19 13 C-19.08226668 16.04386724 -18.97608217 18.07175348 -18 21 C-24.3858291 21.51086633 -27.76950798 21.04174383 -33 17 C-34.64619113 16.28426473 -36.30728055 15.5974304 -38 15 C-38 12.69 -38 10.38 -38 8 C-33.39364631 6.85327221 -28.78549492 5.71418336 -24.17553711 4.58203125 C-22.60861746 4.19608886 -21.04220285 3.80808983 -19.47631836 3.41796875 C-17.22119748 2.85651598 -14.96434421 2.30256447 -12.70703125 1.75 C-12.01100296 1.57500977 -11.31497467 1.40001953 -10.59785461 1.21972656 C-7.00612195 0.34850549 -3.70064386 -0.30567327 0 0 Z " fill="#EDC268" transform="translate(55,64)"/>
<path d="M0 0 C3.96 0 7.92 0 12 0 C11.98428955 1.37720215 11.98428955 1.37720215 11.96826172 2.78222656 C11.93412785 6.19647746 11.9090759 9.61054638 11.89013672 13.02490234 C11.88009409 14.50116847 11.86645735 15.97741479 11.84912109 17.45361328 C11.82479579 19.57850034 11.8134996 21.70312385 11.8046875 23.828125 C11.78897705 25.7447998 11.78897705 25.7447998 11.77294922 27.70019531 C11.98449722 30.77469299 12.36873092 32.43738352 14 35 C12.02 35 10.04 35 8 35 C8 31.04 8 27.08 8 23 C6.68 22.67 5.36 22.34 4 22 C3.34 26.29 2.68 30.58 2 35 C0.02 35 -1.96 35 -4 35 C-3.67 34.01 -3.34 33.02 -3 32 C-2.34 32 -1.68 32 -1 32 C-0.67 21.44 -0.34 10.88 0 0 Z " fill="#494085" transform="translate(34,99)"/>
<path d="M0 0 C0 14.85 0 29.7 0 45 C-2.64 44.34 -5.28 43.68 -8 43 C-8.1738677 38.00139921 -8.30044417 33.00458072 -8.38452148 28.00366211 C-8.4195882 26.30510783 -8.46725799 24.60676282 -8.52807617 22.90893555 C-9.02116373 8.78342732 -9.02116373 8.78342732 -6.44580078 4.28564453 C-2.2206239 0 -2.2206239 0 0 0 Z " fill="#F5F5FE" transform="translate(54,80)"/>
<path d="M0 0 C2.4375 0.1875 2.4375 0.1875 3.4375 1.1875 C3.57318319 4.85094611 3.60211426 7.69365721 2.4375 11.1875 C2.49452974 13.44769329 2.49452974 13.44769329 2.8125 15.8125 C2.90273437 16.60914062 2.99296875 17.40578125 3.0859375 18.2265625 C3.24431084 20.18471983 3.24431084 20.18471983 4.4375 21.1875 C6.12358966 21.25955511 7.81250659 21.27136068 9.5 21.25 C10.41910156 21.24097656 11.33820313 21.23195313 12.28515625 21.22265625 C12.99542969 21.21105469 13.70570312 21.19945313 14.4375 21.1875 C14.18188677 23.5306213 13.84479228 25.86593403 13.4375 28.1875 C10.97380468 29.41934766 9.2480499 29.35482342 6.5 29.375 C5.62472656 29.38917969 4.74945313 29.40335938 3.84765625 29.41796875 C1.4375 29.1875 1.4375 29.1875 -1.5625 27.1875 C-1.5625 26.5275 -1.5625 25.8675 -1.5625 25.1875 C-3.5425 24.8575 -5.5225 24.5275 -7.5625 24.1875 C-7.67091951 22.27208862 -7.74828079 20.35490227 -7.8125 18.4375 C-7.85890625 17.37015625 -7.9053125 16.3028125 -7.953125 15.203125 C-7.47985478 11.54947888 -6.37094958 10.46521895 -3.5625 8.1875 C-3.8925 7.8575 -4.2225 7.5275 -4.5625 7.1875 C-4.75 4.75 -4.75 4.75 -4.5625 2.1875 C-2.5625 0.1875 -2.5625 0.1875 0 0 Z " fill="#D38BA3" transform="translate(99.5625,9.8125)"/>
<path d="M0 0 C0.33 0 0.66 0 1 0 C1.29557392 5.02475668 1.0282379 7.92352591 -2 12 C-2.66 12.66 -3.32 13.32 -4 14 C-4.46396693 16.89223503 -4.46396693 16.89223503 -4.625 20.125 C-4.74875 22.06375 -4.8725 24.0025 -5 26 C-8.96 26 -12.92 26 -17 26 C-17 23.03 -17 20.06 -17 17 C-17.66 16.95875 -18.32 16.9175 -19 16.875 C-23.33828812 15.60966597 -26.71684364 13.08371228 -30 10 C-30.33 9.01 -30.66 8.02 -31 7 C-28.0280615 8.12451727 -25.66559313 9.22293791 -23 11 C-20.72087062 11.45394552 -20.72087062 11.45394552 -18.3125 11.625 C-17.50425781 11.69976562 -16.69601563 11.77453125 -15.86328125 11.8515625 C-15.24839844 11.90054688 -14.63351563 11.94953125 -14 12 C-14.66 11.01 -15.32 10.02 -16 9 C-16.3125 6.4375 -16.3125 6.4375 -16 4 C-13 2 -13 2 -10 2 C-10 4.64 -10 7.28 -10 10 C-6.63983948 8.81940306 -4.21075447 7.8423986 -2 5 C-0.80972016 2.40084462 -0.80972016 2.40084462 0 0 Z " fill="#887AE4" transform="translate(51,73)"/>
<path d="M0 0 C3.64581598 -0.0293908 7.29160087 -0.04692874 10.9375 -0.0625 C11.95908203 -0.07087891 12.98066406 -0.07925781 14.03320312 -0.08789062 C29.72395833 -0.13802083 29.72395833 -0.13802083 34 2 C33.67 3.98 33.34 5.96 33 8 C22.11 8 11.22 8 0 8 C0 5.36 0 2.72 0 0 Z " fill="#8577E3" transform="translate(71,42)"/>
<path d="M0 0 C5.65196548 0.62799616 5.65196548 0.62799616 7.41796875 2.515625 C9.92104133 4.86418692 12.54411359 4.41360284 15.84375 4.49609375 C18 5 18 5 19.7109375 6.68359375 C21.20510336 9.36856451 21.67529112 11.59150921 22.125 14.625 C22.65602844 18.44183657 22.65602844 18.44183657 24 22 C22.35 22 20.7 22 19 22 C18.67 19.36 18.34 16.72 18 14 C17.34 16.31 16.68 18.62 16 21 C16.66 21 17.32 21 18 21 C18 21.66 18 22.32 18 23 C16.35 22.67 14.7 22.34 13 22 C13 18.04 13 14.08 13 10 C11.22625 9.855625 9.4525 9.71125 7.625 9.5625 C2.25 9.125 2.25 9.125 0 8 C0 5.36 0 2.72 0 0 Z " fill="#E3BCBA" transform="translate(92,34)"/>
<path d="M0 0 C2.8125 -0.25 2.8125 -0.25 6 0 C9.29116108 2.93853668 9.9398644 6.83518158 11 11 C11.33 11.99 11.66 12.98 12 14 C10.99500868 16.62843884 10.55192629 17.72403685 8 19 C5 19.1875 5 19.1875 2 19 C0 17 0 17 -0.1953125 14.1796875 C-0.17210938 13.08914062 -0.14890625 11.99859375 -0.125 10.875 C-0.10695313 9.77929688 -0.08890625 8.68359375 -0.0703125 7.5546875 C-0.04710938 6.71164063 -0.02390625 5.86859375 0 5 C-0.66 4.67 -1.32 4.34 -2 4 C-1.34 2.68 -0.68 1.36 0 0 Z " fill="#3F3678" transform="translate(124,75)"/>
<path d="M0 0 C0 1.65 0 3.3 0 5 C12.21 5 24.42 5 37 5 C37 5.33 37 5.66 37 6 C24.79 6 12.58 6 0 6 C0 7.32 0 8.64 0 10 C-1.21236328 10.05607422 -1.21236328 10.05607422 -2.44921875 10.11328125 C-3.51785156 10.17902344 -4.58648437 10.24476562 -5.6875 10.3125 C-7.27111328 10.39951172 -7.27111328 10.39951172 -8.88671875 10.48828125 C-12.23009964 11.03782064 -14.23526262 12.08674018 -17 14 C-17.66 11.36 -18.32 8.72 -19 6 C-15.7 6.33 -12.4 6.66 -9 7 C-9 5.02 -9 3.04 -9 1 C-2.25 0 -2.25 0 0 0 Z " fill="#B2ABE6" transform="translate(73,57)"/>
<path d="M0 0 C5.44707822 -0.83801203 8.70610661 1.08662833 13.00390625 4.15234375 C16.06604313 6.9867679 17.38518427 9.89842108 18 14 C17.6875 17 17.6875 17 17 19 C13.625 19.1875 13.625 19.1875 10 19 C9.34 18.01 8.68 17.02 8 16 C8.99 15.67 9.98 15.34 11 15 C11.33 12.69 11.66 10.38 12 8 C8.37 8.33 4.74 8.66 1 9 C0 4 0 4 0 0 Z " fill="#EDEDF8" transform="translate(102,23)"/>
<path d="M0 0 C3.7133945 3.34205505 5.68123707 6.03047161 6.22265625 11.07421875 C6.49336969 18.00683677 4.81570489 23.76553816 0 29 C-0.66 29 -1.32 29 -2 29 C-1.979375 27.88625 -1.95875 26.7725 -1.9375 25.625 C-1.90771578 21.44031645 -2.42328475 17.42603211 -3.07421875 13.296875 C-2.97848014 10.33401683 -1.804804 9.28362955 0 7 C0.25063732 3.33285151 0.25063732 3.33285151 0 0 Z " fill="#F4F3FD" transform="translate(135,89)"/>
<path d="M0 0 C2.4375 0.1875 2.4375 0.1875 3.4375 1.1875 C3.57318319 4.85094611 3.60211426 7.69365721 2.4375 11.1875 C2.64375 12.115625 2.85 13.04375 3.0625 14 C3.52892177 17.96458508 2.44494378 19.81499444 0.4375 23.1875 C-1.5625 21.6875 -1.5625 21.6875 -3.5625 19.1875 C-3.92050135 16.42878373 -3.74910165 13.98652476 -3.5625 11.1875 C-4.2225 10.8575 -4.8825 10.5275 -5.5625 10.1875 C-4.9025 9.5275 -4.2425 8.8675 -3.5625 8.1875 C-3.8925 7.8575 -4.2225 7.5275 -4.5625 7.1875 C-4.75 4.75 -4.75 4.75 -4.5625 2.1875 C-2.5625 0.1875 -2.5625 0.1875 0 0 Z " fill="#CB82A5" transform="translate(99.5625,9.8125)"/>
<path d="M0 0 C1.65 0.99 3.3 1.98 5 3 C6.65 2.01 8.3 1.02 10 0 C10.144375 1.134375 10.28875 2.26875 10.4375 3.4375 C10.61171478 6.80777201 10.61171478 6.80777201 12 8 C15.52637472 8.15672777 18.61905851 8.04028969 22 7 C21.25 12.75 21.25 12.75 19 15 C16.3984375 15.1953125 16.3984375 15.1953125 13.375 15.125 C11.87066406 15.09792969 11.87066406 15.09792969 10.3359375 15.0703125 C9.56507812 15.04710938 8.79421875 15.02390625 8 15 C8 12.36 8 9.72 8 7 C6.576875 6.8453125 6.576875 6.8453125 5.125 6.6875 C2 6 2 6 0 3 C0 2.01 0 1.02 0 0 Z " fill="#8174E0" transform="translate(114,85)"/>
<path d="M0 0 C2.97 0 5.94 0 9 0 C9 1.32 9 2.64 9 4 C21.21 4 33.42 4 46 4 C46 4.33 46 4.66 46 5 C33.79 5 21.58 5 9 5 C9 6.32 9 7.64 9 9 C6.03 9 3.06 9 0 9 C0 6.03 0 3.06 0 0 Z " fill="#B5ACEE" transform="translate(64,114)"/>
<path d="M0 0 C2.97 0 5.94 0 9 0 C9 1.32 9 2.64 9 4 C21.21 4 33.42 4 46 4 C46 4.33 46 4.66 46 5 C33.79 5 21.58 5 9 5 C9 6.32 9 7.64 9 9 C6.03 9 3.06 9 0 9 C0 6.03 0 3.06 0 0 Z " fill="#A99FEB" transform="translate(64,100)"/>
<path d="M0 0 C2.97 0 5.94 0 9 0 C9 1.32 9 2.64 9 4 C21.21 4 33.42 4 46 4 C46 4.33 46 4.66 46 5 C33.79 5 21.58 5 9 5 C9 6.32 9 7.64 9 9 C6.03 9 3.06 9 0 9 C0 6.03 0 3.06 0 0 Z " fill="#988DE7" transform="translate(64,86)"/>
<path d="M0 0 C2.97 0 5.94 0 9 0 C9 1.32 9 2.64 9 4 C21.21 4 33.42 4 46 4 C46 4.33 46 4.66 46 5 C33.79 5 21.58 5 9 5 C9 6.32 9 7.64 9 9 C6.03 9 3.06 9 0 9 C0 6.03 0 3.06 0 0 Z " fill="#A89EEB" transform="translate(64,72)"/>
<path d="M0 0 C-0.020625 0.763125 -0.04125 1.52625 -0.0625 2.3125 C-0.12942841 5.10185786 -0.12942841 5.10185786 1 8 C-7.60363924 8.68829114 -7.60363924 8.68829114 -11.5625 6.125 C-12.366875 5.42375 -13.17125 4.7225 -14 4 C-14 3.34 -14 2.68 -14 2 C-12.23225581 1.46877637 -10.46065917 0.95035927 -8.6875 0.4375 C-7.70136719 0.14746094 -6.71523438 -0.14257812 -5.69921875 -0.44140625 C-3 -1 -3 -1 0 0 Z " fill="#F2F1FC" transform="translate(36,77)"/>
<path d="M0 0 C2.97 0 5.94 0 9 0 C8.74438677 2.3431213 8.40729228 4.67843403 8 7 C5.54617866 8.22691067 3.80015897 8.20175931 1.0625 8.25 C0.18722656 8.27578125 -0.68804687 8.3015625 -1.58984375 8.328125 C-4.4193869 7.94290357 -5.25132925 7.19305243 -7 5 C-5.02 5 -3.04 5 -1 5 C-0.67 3.35 -0.34 1.7 0 0 Z " fill="#453A79" transform="translate(105,31)"/>
<path d="M0 0 C-0.07573329 3.18079819 -0.41492598 5.31866702 -2.51953125 7.76953125 C-5.93913711 10.84357693 -5.93913711 10.84357693 -8 12 C-8.99 11.67 -9.98 11.34 -11 11 C-11.33 10.34 -11.66 9.68 -12 9 C-11.34 9 -10.68 9 -10 9 C-10.33 6.69 -10.66 4.38 -11 2 C-3.375 0 -3.375 0 0 0 Z " fill="#F2EFF7" transform="translate(51,72)"/>
<path d="M0 0 C0 17.49 0 34.98 0 53 C-0.33 53 -0.66 53 -1 53 C-1.33 38.81 -1.66 24.62 -2 10 C-2.99 10.495 -2.99 10.495 -4 11 C-4 7.7 -4 4.4 -4 1 C-2 0 -2 0 0 0 Z " fill="#D4CEFA" transform="translate(55,71)"/>
<path d="M0 0 C1.32 0 2.64 0 4 0 C5.2982126 5.76081841 6.25706972 11.08739655 6 17 C4.02 17 2.04 17 0 17 C0.34804687 16.4328125 0.69609375 15.865625 1.0546875 15.28125 C2.20274147 12.51073959 1.91605763 11.35171394 1.125 8.5 C0.28278359 5.38699759 0 3.3222532 0 0 Z " fill="#C3809D" transform="translate(120,117)"/>
<path d="M0 0 C5.95703125 -0.390625 5.95703125 -0.390625 8 0 C10.93176895 2.88437314 11.53356231 5.63548395 12.125 9.625 C12.65602844 13.44183657 12.65602844 13.44183657 14 17 C12.35 17 10.7 17 9 17 C7.91681831 11.6787385 6.847126 6.36513131 6 1 C4.02 1 2.04 1 0 1 C0 0.67 0 0.34 0 0 Z " fill="#CA9FA4" transform="translate(102,39)"/>
<path d="M0 0 C0.94875 0.350625 1.8975 0.70125 2.875 1.0625 C3.89411045 4.95364901 4.04282969 6.66846507 2.4375 10.4375 C1.921875 11.30375 1.40625 12.17 0.875 13.0625 C-1.125 11.5625 -1.125 11.5625 -3.125 9.0625 C-3.48300135 6.30378373 -3.31160165 3.86152476 -3.125 1.0625 C-3.785 0.7325 -4.445 0.4025 -5.125 0.0625 C-3.125 -0.9375 -3.125 -0.9375 0 0 Z " fill="#4B3E7C" transform="translate(99.125,19.9375)"/>
<path d="M0 0 C2.9719385 1.12451727 5.33440687 2.22293791 8 4 C10.0492094 4.45139459 10.0492094 4.45139459 12.1875 4.625 C13.445625 4.74875 14.70375 4.8725 16 5 C15.67 9.62 15.34 14.24 15 19 C14.67 19 14.34 19 14 19 C14 16.03 14 13.06 14 10 C13.34 9.95875 12.68 9.9175 12 9.875 C7.66171188 8.60966597 4.28315636 6.08371228 1 3 C0.67 2.01 0.34 1.02 0 0 Z " fill="#9084E6" transform="translate(20,80)"/>
<path d="M0 0 C0.99 0 1.98 0 3 0 C4.54897985 3.0979597 3.83239539 6.26216552 3.5625 9.625 C3.51029297 10.33140625 3.45808594 11.0378125 3.40429688 11.765625 C3.27458793 13.51079987 3.13795046 15.25545725 3 17 C1.68 17 0.36 17 -1 17 C-1.02709444 14.91673869 -1.04643873 12.83337559 -1.0625 10.75 C-1.07410156 9.58984375 -1.08570312 8.4296875 -1.09765625 7.234375 C-1.01782092 4.59022872 -0.78643778 2.50173909 0 0 Z " fill="#C7829D" transform="translate(129,117)"/>
<path d="M0 0 C0.33 0 0.66 0 1 0 C1 5.28 1 10.56 1 16 C-1.97 16 -4.94 16 -8 16 C-8.042721 14.33388095 -8.04063832 12.66617115 -8 11 C-7 10 -7 10 -3.4375 9.9375 C-2.303125 9.958125 -1.16875 9.97875 0 10 C0 6.7 0 3.4 0 0 Z " fill="#C6BFEA" transform="translate(91,26)"/>
<path d="M0 0 C1.485 0.99 1.485 0.99 3 2 C3.26653946 4.9795099 3.34767784 7.7488582 3.29296875 10.7265625 C3.28872391 11.58937836 3.28447906 12.45219421 3.28010559 13.34115601 C3.26328392 16.10275197 3.22562598 18.86362383 3.1875 21.625 C3.17245764 23.49478114 3.15876846 25.3645737 3.14648438 27.234375 C3.11336906 31.82319658 3.06156339 36.41147544 3 41 C2.34 41 1.68 41 1 41 C1.00523682 40.03586182 1.01047363 39.07172363 1.01586914 38.07836914 C1.03392118 34.51327436 1.04543274 30.94818364 1.05493164 27.38305664 C1.0599714 25.83780234 1.0668032 24.29255284 1.07543945 22.74731445 C1.08752076 20.53074971 1.09323173 18.31424782 1.09765625 16.09765625 C1.10539818 15.05545677 1.10539818 15.05545677 1.11329651 13.99220276 C1.11349277 12.3277067 1.06189129 10.66334501 1 9 C0.67 8.67 0.34 8.34 0 8 C-0.14115161 5.32941149 -0.04247107 2.67567762 0 0 Z " fill="#F1EFFD" transform="translate(114,46)"/>
<path d="M0 0 C0.33 0.99 0.66 1.98 1 3 C2.32 3 3.64 3 5 3 C5 3.66 5 4.32 5 5 C3.20856793 5.9795958 1.41684696 6.9586633 -0.375 7.9375 C-1.37273438 8.48277344 -2.37046875 9.02804688 -3.3984375 9.58984375 C-4.92070346 10.4149759 -6.45128783 11.22564391 -8 12 C-8.66 9.36 -9.32 6.72 -10 4 C-6.7 4.33 -3.4 4.66 0 5 C0 3.35 0 1.7 0 0 Z " fill="#E7C3BE" transform="translate(64,59)"/>
<path d="M0 0 C0.66 0 1.32 0 2 0 C2 2.64 2 5.28 2 8 C4.64 8 7.28 8 10 8 C10 6.35 10 4.7 10 3 C11.65 2.34 13.3 1.68 15 1 C14.25 6.75 14.25 6.75 12 9 C9.3984375 9.1953125 9.3984375 9.1953125 6.375 9.125 C4.87066406 9.09792969 4.87066406 9.09792969 3.3359375 9.0703125 C2.56507812 9.04710938 1.79421875 9.02390625 1 9 C0.67 6.03 0.34 3.06 0 0 Z " fill="#C1B3E6" transform="translate(121,91)"/>
<path d="M0 0 C0 2.64 0 5.28 0 8 C-1.98 8.99 -1.98 8.99 -4 10 C-6.1387261 6.79191085 -6.47730962 5.72301503 -6 2 C-3 0 -3 0 0 0 Z " fill="#B1799B" transform="translate(41,75)"/>
<path d="M0 0 C1.98 0 3.96 0 6 0 C6 2.31 6 4.62 6 7 C4.02 7 2.04 7 0 7 C0 4.69 0 2.38 0 0 Z " fill="#FAFAFE" transform="translate(65,101)"/>
<path d="M0 0 C1.98 0 3.96 0 6 0 C6 2.31 6 4.62 6 7 C4.02 7 2.04 7 0 7 C0 4.69 0 2.38 0 0 Z " fill="#FAFAFE" transform="translate(65,87)"/>
<path d="M0 0 C1.98 0 3.96 0 6 0 C6 2.31 6 4.62 6 7 C4.02 7 2.04 7 0 7 C0 4.69 0 2.38 0 0 Z " fill="#FAFAFE" transform="translate(65,73)"/>
<path d="M0 0 C0.33 2.64 0.66 5.28 1 8 C0.01 8.33 -0.98 8.66 -2 9 C-2.99 8.34 -3.98 7.68 -5 7 C-4.625 4.0625 -4.625 4.0625 -4 1 C-2 0 -2 0 0 0 Z " fill="#E48C93" transform="translate(14,73)"/>
<path d="M0 0 C2.5 1.1875 2.5 1.1875 5 3 C5.3125 5.6875 5.3125 5.6875 5 8 C3.35 8.66 1.7 9.32 0 10 C0 6.7 0 3.4 0 0 Z " fill="#EADEEE" transform="translate(120,77)"/>
<path d="M0 0 C1.98 0 3.96 0 6 0 C6 1.98 6 3.96 6 6 C4.02 6 2.04 6 0 6 C0 4.02 0 2.04 0 0 Z " fill="#FFFFFF" transform="translate(65,115)"/>
<path d="M0 0 C1.65 0.99 3.3 1.98 5 3 C6.65 2.01 8.3 1.02 10 0 C9.67 1.98 9.34 3.96 9 6 C6.75 6.75 6.75 6.75 4 7 C1.6875 5.25 1.6875 5.25 0 3 C0 2.01 0 1.02 0 0 Z " fill="#897CE4" transform="translate(114,85)"/>
<path d="M0 0 C0.66 0 1.32 0 2 0 C2.33 3.96 2.66 7.92 3 12 C1.68 11.67 0.36 11.34 -1 11 C-0.67 7.37 -0.34 3.74 0 0 Z " fill="#DCDAEB" transform="translate(39,110)"/>
<path d="M0 0 C0.78375 0.04125 1.5675 0.0825 2.375 0.125 C2.705 1.115 3.035 2.105 3.375 3.125 C2.59125 3.2075 1.8075 3.29 1 3.375 C-1.77249104 3.85306339 -1.77249104 3.85306339 -2.9375 6.1875 C-3.164375 6.826875 -3.39125 7.46625 -3.625 8.125 C-4.625 7.125 -4.625 7.125 -4.8125 4.6875 C-4.54653904 1.05270021 -3.63803315 0.17323967 0 0 Z " fill="#8676E1" transform="translate(99.625,9.875)"/>
<path d="M0 0 C2.64 0 5.28 0 8 0 C8 1.32 8 2.64 8 4 C7.01 4 6.02 4 5 4 C5 3.01 5 2.02 5 1 C4.34 1 3.68 1 3 1 C3 1.99 3 2.98 3 4 C2.01 4 1.02 4 0 4 C0 2.68 0 1.36 0 0 Z " fill="#8A7DE4" transform="translate(83,37)"/>
<path d="M0 0 C0.12375 1.11375 0.2475 2.2275 0.375 3.375 C0.6465813 7.03103677 0.6465813 7.03103677 3 9 C1.35 9 -0.3 9 -2 9 C-2.33 6.36 -2.66 3.72 -3 1 C-1 0 -1 0 0 0 Z " fill="#ECDDDC" transform="translate(17,72)"/>
<path d="M0 0 C2 2 2 2 2.1953125 3.9453125 C2.13020833 5.96354167 2.06510417 7.98177083 2 10 C1.01 9.67 0.02 9.34 -1 9 C-0.67 6.03 -0.34 3.06 0 0 Z " fill="#F9F5F5" transform="translate(109,46)"/>
<path d="M0 0 C1.98 0 3.96 0 6 0 C5.34 1.65 4.68 3.3 4 5 C3.01 4.67 2.02 4.34 1 4 C0.3125 1.9375 0.3125 1.9375 0 0 Z " fill="#DCD9F2" transform="translate(64,58)"/>
<path d="M0 0 C1.32 0 2.64 0 4 0 C4 1.65 4 3.3 4 5 C2.35 5 0.7 5 -1 5 C-0.67 3.35 -0.34 1.7 0 0 Z " fill="#E090A5" transform="translate(99,13)"/>
<path d="M0 0 C-0.375 2.9375 -0.375 2.9375 -1 6 C-1.99 6.495 -1.99 6.495 -3 7 C-3.33 5.02 -3.66 3.04 -4 1 C-2 0 -2 0 0 0 Z " fill="#968AE4" transform="translate(136,92)"/>
<path d="M0 0 C1.61949011 2.57213134 2.04408751 3.67669159 1.625 6.75 C1.41875 7.4925 1.2125 8.235 1 9 C0.34 8.67 -0.32 8.34 -1 8 C-1.04241723 5.66705225 -1.04092937 3.33297433 -1 1 C-0.67 0.67 -0.34 0.34 0 0 Z " fill="#D4CFF5" transform="translate(72,86)"/>
<path d="M0 0 C0.33 0.99 0.66 1.98 1 3 C2.32 3 3.64 3 5 3 C5 3.66 5 4.32 5 5 C3.02 5.66 1.04 6.32 -1 7 C-0.67 4.69 -0.34 2.38 0 0 Z " fill="#867FB4" transform="translate(64,59)"/>
<path d="M0 0 C1.32 0.99 2.64 1.98 4 3 C3.34 4.32 2.68 5.64 2 7 C1.01 6.34 0.02 5.68 -1 5 C-0.67 3.35 -0.34 1.7 0 0 Z " fill="#C27D9C" transform="translate(101,28)"/>
</svg>
